<svg xmlns="http://www.w3.org/2000/svg" xmlns:xlink="http://www.w3.org/1999/xlink" width="400" zoomAndPan="magnify" viewBox="0 0 300 299.999988" height="400" preserveAspectRatio="xMidYMid meet" version="1.2"><g id="0568a7b636"><path style=" stroke:none;fill-rule:nonzero;fill:#e4572e;fill-opacity:1;" d="M 145.363281 132.878906 C 146.75 126.535156 148.078125 120.179688 149.535156 113.851562 C 152.878906 99.34375 157.148438 85.121094 164.453125 72.054688 C 178.214844 47.445312 198.851562 32.121094 226.699219 26.894531 C 234.53125 25.421875 242.390625 25.773438 250.136719 27.667969 C 266.554688 31.6875 277.867188 44.121094 280.617188 60.910156 C 282.5625 72.773438 280.558594 84.210938 277.089844 95.492188 C 272.699219 109.78125 265.925781 122.96875 258.210938 135.699219 C 246.40625 155.175781 232.835938 173.378906 218.164062 190.777344 C 190.824219 223.1875 161.042969 253.167969 128.390625 280.230469 C 121.316406 286.09375 113.546875 291.152344 105.890625 296.261719 C 103.339844 297.964844 100.210938 299.117188 97.191406 299.664062 C 95.636719 299.945312 93.109375 298.808594 92.152344 297.492188 C 90.671875 295.453125 92.574219 293.824219 94.308594 292.601562 C 113.507812 279.089844 130.6875 263.207031 147.660156 247.089844 C 173.800781 222.269531 198.484375 196.089844 220.671875 167.636719 C 233.140625 151.652344 244.691406 135.03125 254.203125 117.082031 C 260.226562 105.714844 265.449219 93.980469 267.503906 81.183594 C 268.351562 75.902344 268.675781 70.40625 268.277344 65.082031 C 267.261719 51.308594 258.210938 41.886719 244.601562 39.5 C 235.960938 37.980469 227.527344 38.917969 219.3125 41.664062 C 198.636719 48.574219 183.550781 61.957031 173.902344 81.476562 C 167.273438 94.890625 163.289062 109.191406 160.484375 123.796875 C 157.476562 139.472656 155.003906 155.25 152.246094 170.972656 C 151.820312 173.398438 151.363281 175.863281 150.492188 178.144531 C 149.527344 180.664062 147.359375 181.953125 144.628906 181.898438 C 141.910156 181.84375 139.777344 180.527344 138.867188 177.96875 C 138.125 175.878906 137.722656 173.625 137.484375 171.40625 C 133.480469 133.800781 124.128906 97.511719 109.691406 62.628906 C 105.597656 52.746094 99.929688 43.378906 93.984375 34.445312 C 90.457031 29.144531 85.449219 24.503906 80.273438 20.695312 C 69.957031 13.101562 58.195312 14.300781 48.953125 23.183594 C 38.742188 33 34.378906 45.648438 32.09375 59.203125 C 28.136719 82.695312 32.132812 105.375 39.585938 127.585938 C 47.9375 152.464844 59.496094 175.808594 74.765625 197.191406 C 83.261719 209.085938 92.261719 220.621094 101.035156 232.316406 C 103.734375 235.917969 106.640625 239.382812 109.066406 243.152344 C 110.488281 245.359375 111.628906 247.972656 112.050781 250.542969 C 112.746094 254.789062 110.332031 256.457031 106.4375 254.773438 C 105.210938 254.242188 104.027344 253.523438 102.976562 252.695312 C 101.390625 251.445312 99.761719 250.175781 98.457031 248.652344 C 66.9375 211.78125 39.8125 172.292969 25.800781 125.128906 C 20.515625 107.335938 17.4375 89.210938 18.5625 70.554688 C 19.3125 58.117188 21.59375 46.011719 26.660156 34.546875 C 30.0625 26.851562 34.613281 19.929688 40.765625 14.140625 C 54.167969 1.527344 71.878906 0.0703125 87.179688 10.347656 C 94.757812 15.4375 100.699219 22.171875 105.9375 29.5625 C 113.535156 40.277344 119.152344 52.035156 123.832031 64.25 C 131.726562 84.855469 138.21875 105.894531 142.972656 127.457031 C 143.355469 129.203125 143.871094 130.914062 144.328125 132.644531 C 144.675781 132.722656 145.019531 132.796875 145.367188 132.875 Z M 145.363281 132.878906 "/></g></svg>