<svg xmlns="http://www.w3.org/2000/svg" xmlns:xlink="http://www.w3.org/1999/xlink" width="400" zoomAndPan="magnify" viewBox="0 0 300 299.999988" height="400" preserveAspectRatio="xMidYMid meet" version="1.2"><defs><clipPath id="d69c55231a"><path d="M 24 27.21875 L 242.105469 27.21875 L 242.105469 221.828125 L 24 221.828125 Z M 24 27.21875 "/></clipPath><clipPath id="937c9a2117"><path d="M 53.550781 126.898438 C 42.898438 109.199219 35.023438 89.625 31.800781 80.699219 C 30 75.675781 28.726562 72.523438 28.273438 68.773438 C 27.824219 65.550781 28.050781 62.699219 28.574219 59.699219 C 29.023438 56.773438 29.851562 53.773438 30.976562 51 C 32.175781 48.300781 33.675781 45.601562 35.476562 43.199219 C 37.273438 40.726562 39.375 38.476562 41.699219 36.601562 C 43.949219 34.726562 46.574219 33 49.273438 31.726562 C 51.976562 30.375 54.898438 29.398438 57.824219 28.800781 C 60.75 28.199219 63.824219 27.898438 66.824219 27.976562 C 69.824219 28.125 72.898438 28.574219 75.75 29.398438 C 78.675781 30.226562 81.523438 31.425781 84.148438 32.851562 C 86.699219 34.351562 89.175781 36.226562 91.351562 38.25 C 93.523438 40.273438 95.550781 42.675781 97.125 45.226562 C 98.773438 47.699219 100.125 50.550781 101.101562 53.324219 C 102.074219 56.175781 102.976562 58.199219 102.976562 62.175781 C 102.898438 70.5 93.300781 88.199219 94.574219 100.351562 C 95.851562 112.351562 108.898438 126.675781 110.25 134.773438 C 110.851562 138.898438 109.875 141.449219 109.125 144.601562 C 108.375 147.523438 107.324219 150.375 105.898438 153 C 104.550781 155.699219 102.75 158.25 100.800781 160.5 C 98.773438 162.675781 96.449219 164.773438 94.050781 166.5 C 91.574219 168.148438 88.800781 169.574219 86.023438 170.699219 C 83.25 171.75 80.175781 172.5 77.25 172.800781 C 74.25 173.175781 71.175781 173.175781 68.175781 172.800781 C 65.25 172.5 62.25 171.75 59.398438 170.699219 C 56.625 169.574219 53.851562 168.148438 51.449219 166.425781 C 48.976562 164.773438 46.648438 162.675781 44.625 160.5 C 42.675781 158.25 40.875 155.699219 39.523438 153 C 38.101562 150.375 37.050781 147.449219 36.300781 144.601562 C 35.625 141.675781 36 139.574219 35.25 135.601562 C 33.601562 127.5 26.101562 108 24.675781 99.074219 C 23.851562 94.050781 24.074219 90.824219 24.300781 87.148438 C 24.375 83.925781 24.675781 81.074219 25.351562 78.148438 C 26.101562 75.226562 27.148438 72.375 28.574219 69.675781 C 29.925781 67.050781 31.726562 64.5 33.675781 62.25 C 35.699219 60 38.023438 57.976562 40.425781 56.25 C 42.898438 54.601562 45.675781 53.101562 48.449219 52.050781 C 51.300781 51 54.300781 50.25 57.226562 49.875 C 60.226562 49.574219 63.300781 49.574219 66.300781 49.875 C 69.226562 50.25 72.300781 51 75.074219 52.050781 C 77.851562 53.101562 80.625 54.601562 83.101562 56.25 C 85.5 57.976562 87.824219 60 89.851562 62.25 C 91.800781 64.5 93.601562 67.050781 94.949219 69.675781 C 96.375 72.375 97.425781 75.226562 98.175781 78.148438 C 98.925781 81.074219 98.324219 83.175781 99.300781 87.148438 C 101.175781 95.625 106.199219 113.925781 112.425781 126 C 118.574219 138.226562 127.425781 159.226562 136.425781 159.824219 C 145.949219 160.5 164.175781 136.125 168.300781 126.226562 C 170.773438 120.300781 167.550781 114.601562 168.75 109.800781 C 169.800781 105.675781 171.824219 102.226562 174.148438 98.925781 C 176.476562 95.699219 179.476562 92.699219 182.773438 90.375 C 186 88.050781 189.824219 86.175781 193.648438 85.050781 C 197.476562 83.851562 201.675781 83.324219 205.648438 83.398438 C 209.625 83.550781 213.824219 84.300781 217.574219 85.726562 C 221.324219 87.074219 225 89.175781 228.148438 91.726562 C 231.226562 94.199219 234.074219 97.425781 236.175781 100.800781 C 238.351562 104.101562 240 108.074219 240.976562 111.898438 C 241.949219 115.800781 242.25 120.074219 241.949219 124.050781 C 241.574219 128.023438 240.601562 132.148438 238.949219 135.75 C 237.375 139.425781 235.125 143.023438 232.425781 146.023438 C 229.726562 148.949219 226.425781 151.648438 222.976562 153.601562 C 219.449219 155.550781 215.476562 156.976562 211.574219 157.726562 C 207.601562 158.476562 203.398438 158.550781 199.425781 158.023438 C 195.449219 157.5 191.398438 156.226562 187.800781 154.425781 C 184.273438 152.699219 180.824219 150.148438 177.976562 147.375 C 175.199219 144.523438 172.726562 141.074219 170.925781 137.476562 C 169.199219 133.875 167.925781 129.824219 167.398438 125.851562 C 166.875 121.949219 167.023438 117.675781 167.773438 113.773438 C 168.523438 109.800781 170.023438 105.824219 171.976562 102.375 C 173.925781 98.925781 176.625 95.550781 179.550781 92.925781 C 182.550781 90.300781 186.148438 87.976562 189.824219 86.398438 C 193.5 84.824219 197.625 83.851562 201.601562 83.476562 C 205.574219 83.175781 209.851562 83.550781 213.675781 84.523438 C 217.574219 85.5 221.476562 87.148438 224.851562 89.324219 C 228.226562 91.5 231.375 94.351562 233.851562 97.5 C 236.324219 100.574219 238.425781 104.324219 239.773438 108.074219 C 241.125 111.824219 241.949219 115.949219 242.023438 120 C 242.175781 123.976562 241.875 127.5 240.375 132 C 238.273438 138.449219 232.425781 145.800781 228.523438 154.199219 C 223.574219 164.773438 221.550781 180.976562 213.824219 190.648438 C 206.175781 200.175781 194.023438 207.074219 182.699219 212.175781 C 171.449219 217.199219 158.476562 220.273438 146.101562 221.101562 C 133.800781 221.925781 119.925781 221.851562 108.675781 217.050781 C 97.050781 212.023438 87.75 199.800781 77.851562 190.800781 C 68.023438 182.023438 56.398438 174.226562 49.5 163.648438 C 42.601562 153.300781 40.273438 140.476562 36.148438 128.101562 C 31.800781 114.976562 24.976562 95.925781 24.300781 87.148438 C 23.925781 83.101562 24.675781 81.074219 25.351562 78.148438 C 26.101562 75.226562 27.148438 72.375 28.574219 69.675781 C 29.925781 67.050781 31.726562 64.5 33.675781 62.25 C 35.699219 60 38.023438 57.976562 40.425781 56.25 C 42.898438 54.601562 45.675781 53.101562 48.449219 52.050781 C 51.226562 51 54.300781 50.25 57.226562 49.875 C 60.226562 49.574219 63.300781 49.574219 66.300781 49.875 C 69.226562 50.25 72.226562 51 75.074219 52.050781 C 77.851562 53.101562 80.625 54.601562 83.101562 56.25 C 85.5 57.976562 87.824219 60 89.851562 62.25 C 91.800781 64.5 93.601562 67.050781 94.949219 69.675781 C 96.375 72.375 97.425781 75.226562 98.175781 78.148438 C 98.925781 81.074219 100.425781 85.574219 99.300781 87.148438 C 98.25 88.425781 94.125 86.398438 93.074219 88.050781 C 90.226562 92.851562 109.125 125.925781 110.25 135.601562 C 110.699219 139.726562 109.875 141.675781 109.125 144.601562 C 108.449219 147.449219 107.324219 150.375 105.898438 153 C 104.550781 155.699219 102.75 158.25 100.800781 160.5 C 98.773438 162.675781 96.449219 164.773438 94.050781 166.425781 C 91.574219 168.148438 88.800781 169.574219 86.023438 170.699219 C 83.25 171.75 80.175781 172.5 77.25 172.800781 C 74.25 173.175781 71.175781 173.175781 68.175781 172.800781 C 65.25 172.5 62.25 171.75 59.398438 170.699219 C 56.625 169.574219 53.851562 168.148438 51.449219 166.5 C 48.976562 164.773438 46.648438 162.675781 44.625 160.5 C 42.675781 158.25 40.875 155.699219 39.523438 153 C 38.101562 150.375 37.050781 147.449219 36.300781 144.601562 C 35.625 141.675781 35.324219 139.273438 35.25 135.601562 C 35.023438 129.898438 36.75 122.324219 36.148438 113.773438 C 35.398438 101.476562 28.875 78.074219 28.273438 68.773438 C 27.976562 64.648438 28.050781 62.699219 28.574219 59.699219 C 29.023438 56.773438 29.851562 53.773438 30.976562 51 C 32.175781 48.300781 33.675781 45.601562 35.476562 43.199219 C 37.273438 40.800781 39.375 38.476562 41.699219 36.601562 C 43.949219 34.726562 46.574219 33 49.273438 31.726562 C 51.976562 30.449219 54.898438 29.398438 57.824219 28.800781 C 60.75 28.199219 63.824219 27.898438 66.824219 27.976562 C 69.824219 28.125 72.898438 28.574219 75.75 29.398438 C 78.675781 30.226562 81.523438 31.351562 84.148438 32.851562 C 86.699219 34.351562 89.175781 36.148438 91.351562 38.25 C 93.523438 40.273438 95.550781 42.675781 97.125 45.226562 C 98.773438 47.699219 100.125 50.476562 101.101562 53.324219 C 102.074219 56.175781 101.851562 58.949219 102.976562 62.175781 C 104.398438 66.375 107.550781 72 109.949219 76.125 C 111.976562 79.648438 114.449219 82.574219 116.175781 85.648438 C 117.824219 88.425781 119.25 90.976562 120.226562 93.75 C 121.199219 96.601562 121.875 99.601562 122.175781 102.601562 C 122.476562 105.523438 122.398438 108.675781 122.023438 111.601562 C 121.574219 114.601562 120.75 117.601562 119.625 120.375 C 118.5 123.148438 117 125.851562 115.273438 128.25 C 113.550781 130.648438 111.449219 132.976562 109.125 134.925781 C 106.875 136.800781 104.25 138.523438 101.550781 139.875 C 98.925781 141.226562 96 142.199219 93.074219 142.875 C 90.148438 143.550781 87.074219 143.851562 84.074219 143.773438 C 81.074219 143.699219 78 143.25 75.148438 142.5 C 72.226562 141.75 69.375 140.550781 66.75 139.125 C 64.125 137.625 61.574219 135.824219 59.398438 133.800781 C 57.226562 131.773438 53.550781 126.898438 53.550781 126.898438 "/></clipPath><clipPath id="ebd162a7e3"><path d="M 154.503906 36 L 261.445312 36 L 261.445312 161.714844 L 154.503906 161.714844 Z M 154.503906 36 "/></clipPath><clipPath id="4071d7fc9b"><path d="M 158.699219 107.699219 C 169.050781 87.976562 185.476562 61.875 192.523438 52.875 C 195.898438 48.601562 197.699219 46.5 200.851562 44.023438 C 204 41.625 207.75 39.601562 211.574219 38.324219 C 215.324219 37.050781 219.523438 36.375 223.5 36.300781 C 227.476562 36.300781 231.675781 36.976562 235.5 38.25 C 239.25 39.523438 243.074219 41.476562 246.226562 43.875 C 249.449219 46.351562 252.375 49.425781 254.625 52.726562 C 256.875 56.023438 258.675781 59.851562 259.726562 63.675781 C 260.773438 67.5 261.300781 71.773438 261.074219 75.75 C 260.851562 79.726562 259.949219 83.925781 258.523438 87.601562 C 257.023438 91.351562 254.851562 94.949219 252.300781 98.023438 C 249.75 101.101562 246.449219 103.875 243.074219 105.898438 C 239.625 108 235.726562 109.574219 231.824219 110.398438 C 227.925781 111.300781 223.648438 111.523438 219.675781 111.148438 C 215.699219 110.699219 211.648438 109.574219 207.976562 107.925781 C 204.375 106.273438 200.851562 103.875 197.925781 101.101562 C 195 98.398438 192.449219 95.023438 190.574219 91.5 C 188.699219 87.976562 187.273438 83.925781 186.675781 80.023438 C 186 76.050781 186 71.851562 186.601562 67.875 C 187.273438 63.976562 188.550781 59.925781 190.425781 56.398438 C 192.300781 52.800781 194.851562 49.425781 197.773438 46.648438 C 200.625 43.949219 204.148438 41.550781 207.75 39.824219 C 211.425781 38.175781 215.476562 36.976562 219.449219 36.601562 C 223.425781 36.148438 227.699219 36.375 231.601562 37.199219 C 235.5 38.023438 239.476562 39.601562 242.851562 41.625 C 246.300781 43.726562 249.523438 46.425781 252.148438 49.5 C 254.699219 52.5 256.949219 56.175781 258.449219 59.851562 C 259.949219 63.523438 260.851562 67.726562 261.074219 71.699219 C 261.300781 75.675781 260.851562 79.875 259.800781 83.773438 C 258.75 87.601562 255.226562 94.875 254.699219 94.800781 C 254.550781 94.726562 255.074219 92.476562 254.773438 92.398438 C 253.351562 91.949219 235.800781 121.875 231 130.574219 C 228.601562 134.925781 227.851562 137.550781 226.125 140.625 C 224.550781 143.324219 223.125 145.875 221.175781 148.199219 C 219.226562 150.449219 216.976562 152.625 214.574219 154.351562 C 212.175781 156.148438 209.476562 157.648438 206.699219 158.773438 C 203.925781 159.976562 200.925781 160.800781 198 161.25 C 195 161.699219 191.925781 161.773438 188.925781 161.476562 C 186 161.175781 182.925781 160.574219 180.148438 159.601562 C 177.300781 158.625 174.523438 157.199219 171.976562 155.625 C 169.5 153.976562 167.101562 152.023438 165.074219 149.773438 C 162.976562 147.601562 161.175781 145.125 159.675781 142.5 C 158.25 139.875 157.050781 137.023438 156.226562 134.175781 C 155.476562 131.25 155.023438 128.25 154.875 125.25 C 154.800781 122.25 155.101562 119.175781 155.773438 116.25 C 156.375 113.324219 158.699219 107.699219 158.699219 107.699219 "/></clipPath><clipPath id="bf947afd77"><path d="M 186.042969 36 L 266 36 L 266 152.761719 L 186.042969 152.761719 Z M 186.042969 36 "/></clipPath><clipPath id="3ff5eefca2"><path d="M 258.523438 60.074219 C 263.476562 75.675781 266.476562 95.625 265.726562 106.726562 C 265.199219 115.351562 262.875 123.375 260.398438 129.300781 C 258.675781 133.574219 256.726562 136.648438 254.101562 139.648438 C 251.476562 142.648438 248.25 145.425781 244.800781 147.449219 C 241.351562 149.476562 237.449219 151.050781 233.550781 151.875 C 229.574219 152.699219 225.375 152.925781 221.398438 152.476562 C 217.425781 152.023438 213.300781 150.824219 209.699219 149.175781 C 206.101562 147.449219 202.574219 145.050781 199.726562 142.273438 C 196.800781 139.5 194.25 136.125 192.449219 132.601562 C 190.574219 129.074219 189.226562 125.023438 188.625 121.050781 C 188.023438 117.148438 188.023438 112.875 188.699219 108.898438 C 189.375 105 190.726562 100.949219 192.601562 97.425781 C 194.550781 93.976562 197.101562 90.601562 200.023438 87.824219 C 202.949219 85.125 206.476562 82.726562 210.074219 81.074219 C 213.75 79.425781 217.875 78.300781 221.851562 77.925781 C 225.824219 77.476562 230.023438 77.773438 233.925781 78.601562 C 237.824219 79.5 241.800781 81.148438 245.175781 83.175781 C 248.550781 85.273438 251.851562 88.050781 254.398438 91.125 C 256.949219 94.125 259.125 97.800781 260.550781 101.550781 C 262.050781 105.226562 262.949219 109.425781 263.101562 113.398438 C 263.324219 117.375 262.800781 121.648438 261.75 125.476562 C 260.625 129.300781 258.824219 133.125 256.574219 136.425781 C 254.324219 139.726562 251.398438 142.800781 248.175781 145.199219 C 245.023438 147.601562 241.199219 149.550781 237.449219 150.824219 C 233.625 152.101562 229.425781 152.699219 225.449219 152.699219 C 221.476562 152.699219 217.273438 151.949219 213.449219 150.675781 C 209.699219 149.398438 205.949219 147.375 202.800781 144.898438 C 199.648438 142.5 196.726562 139.425781 194.476562 136.050781 C 192.300781 132.75 190.5 128.851562 189.449219 125.023438 C 188.398438 121.199219 188.023438 117.375 188.25 112.949219 C 188.476562 107.625 192.074219 101.023438 191.773438 95.25 C 191.476562 89.625 187.273438 83.550781 186.449219 78.824219 C 185.925781 75.449219 186 72.75 186.375 69.824219 C 186.675781 66.824219 187.351562 63.824219 188.398438 60.976562 C 189.449219 58.199219 190.800781 55.425781 192.523438 52.949219 C 194.175781 50.476562 196.199219 48.074219 198.375 46.050781 C 200.625 44.101562 203.175781 42.300781 205.800781 40.875 C 208.425781 39.449219 211.273438 38.324219 214.199219 37.574219 C 217.125 36.824219 220.199219 36.375 223.125 36.300781 C 226.125 36.300781 229.199219 36.601562 232.125 37.273438 C 235.050781 38.023438 237.976562 39.074219 240.601562 40.425781 C 243.300781 41.773438 245.851562 43.5 248.175781 45.449219 C 250.425781 47.398438 252.523438 49.726562 254.25 52.125 C 255.976562 54.601562 258.523438 60.074219 258.523438 60.074219 "/></clipPath><clipPath id="4fd9d68f26"><path d="M 33.398438 28.339844 L 134.976562 28.339844 L 134.976562 184.871094 L 33.398438 184.871094 Z M 33.398438 28.339844 "/></clipPath><clipPath id="86e9f326b7"><path d="M 61.5 159.148438 C 43.050781 97.125 36 80.851562 34.351562 72.449219 C 33.601562 68.476562 33.675781 66.449219 33.898438 63.449219 C 34.050781 60.449219 34.648438 57.375 35.550781 54.523438 C 36.449219 51.675781 37.726562 48.898438 39.300781 46.351562 C 40.875 43.800781 42.75 41.324219 44.925781 39.226562 C 47.023438 37.125 49.5 35.25 52.050781 33.675781 C 54.601562 32.175781 57.449219 30.898438 60.300781 30 C 63.148438 29.175781 66.226562 28.574219 69.226562 28.425781 C 72.226562 28.273438 75.300781 28.5 78.226562 29.023438 C 81.148438 29.550781 84.148438 30.523438 86.851562 31.800781 C 89.550781 33 92.25 34.648438 94.574219 36.449219 C 96.898438 38.324219 99.074219 40.574219 100.949219 42.898438 C 102.75 45.300781 104.324219 47.925781 105.601562 50.625 C 106.800781 53.398438 108.976562 58.800781 108.226562 59.324219 C 106.800781 60.148438 87.601562 41.023438 88.5 39.449219 C 89.101562 38.476562 96.523438 41.25 100.125 42.976562 C 103.726562 44.699219 107.175781 47.175781 110.023438 50.023438 C 112.875 52.800781 115.351562 56.25 117.148438 59.773438 C 118.949219 63.375 120.226562 67.425781 120.824219 71.398438 C 121.351562 75.300781 121.273438 79.574219 120.523438 83.476562 C 119.851562 87.449219 118.351562 91.425781 116.398438 94.949219 C 114.449219 98.398438 111.824219 101.773438 108.898438 104.398438 C 105.898438 107.101562 102.375 109.425781 98.699219 111 C 95.023438 112.648438 90.898438 113.699219 86.925781 114 C 82.949219 114.375 78.75 114.074219 74.851562 113.101562 C 70.949219 112.199219 67.050781 110.550781 63.675781 108.375 C 60.300781 106.273438 57.074219 103.425781 54.601562 100.351562 C 52.050781 97.273438 49.949219 93.523438 48.523438 89.851562 C 47.175781 86.101562 46.351562 81.898438 46.199219 77.925781 C 46.050781 73.949219 46.574219 69.675781 47.773438 65.851562 C 48.898438 62.023438 50.773438 58.273438 53.101562 54.976562 C 55.425781 51.75 58.351562 48.675781 61.574219 46.351562 C 64.800781 44.023438 68.625 42.074219 72.449219 40.875 C 76.273438 39.675781 80.476562 39.074219 84.449219 39.148438 C 88.425781 39.300781 92.625 40.050781 96.375 41.398438 C 100.125 42.75 103.875 44.851562 107.023438 47.324219 C 110.101562 49.800781 112.949219 52.949219 115.125 56.25 C 117.300781 59.625 119.023438 63.523438 120 67.425781 C 120.976562 71.25 121.351562 75.523438 121.050781 79.5 C 120.75 83.476562 119.773438 87.601562 118.199219 91.273438 C 116.625 94.949219 114.375 98.550781 111.75 101.550781 C 109.050781 104.550781 105.75 107.25 102.300781 109.199219 C 98.851562 111.226562 94.875 112.648438 90.976562 113.476562 C 87.074219 114.226562 83.324219 114.75 78.824219 113.851562 C 72.675781 112.648438 64.351562 109.648438 57.75 104.324219 C 49.199219 97.351562 37.125 80.175781 34.351562 72.449219 C 33.074219 68.773438 33.675781 66.449219 33.898438 63.449219 C 34.050781 60.449219 34.648438 57.375 35.550781 54.523438 C 36.449219 51.675781 37.726562 48.898438 39.300781 46.351562 C 40.875 43.800781 42.75 41.324219 44.925781 39.226562 C 47.023438 37.125 49.5 35.25 52.050781 33.675781 C 54.601562 32.175781 57.449219 30.898438 60.300781 30 C 63.148438 29.175781 66.226562 28.574219 69.226562 28.425781 C 72.226562 28.273438 75.300781 28.5 78.226562 29.023438 C 81.148438 29.550781 84.148438 30.523438 86.851562 31.726562 C 89.550781 33 92.25 34.648438 94.574219 36.449219 C 96.898438 38.324219 99.074219 40.5 100.949219 42.898438 C 102.75 45.226562 104.324219 47.925781 105.601562 50.625 C 106.800781 53.398438 108.300781 59.25 108.226562 59.324219 C 108.074219 59.324219 104.398438 48.75 104.175781 48.824219 C 103.800781 48.976562 111.074219 74.324219 115.199219 87 C 119.398438 99.898438 126.375 117 129.375 125.625 C 130.875 129.898438 131.773438 132.226562 132.601562 135.375 C 133.425781 138.375 134.175781 141.300781 134.476562 144.226562 C 134.699219 147.226562 134.550781 150.375 134.101562 153.300781 C 133.574219 156.226562 132.75 159.226562 131.550781 162 C 130.351562 164.699219 128.851562 167.398438 127.050781 169.800781 C 125.25 172.199219 123.074219 174.449219 120.75 176.324219 C 118.425781 178.199219 115.800781 179.851562 113.101562 181.125 C 110.398438 182.398438 107.476562 183.375 104.550781 183.976562 C 101.625 184.574219 98.550781 184.875 95.550781 184.726562 C 92.550781 184.574219 89.476562 184.125 86.625 183.300781 C 83.699219 182.476562 80.851562 181.199219 78.300781 179.699219 C 75.675781 178.199219 73.199219 176.398438 71.101562 174.300781 C 68.925781 172.199219 66.976562 169.800781 65.324219 167.25 C 63.75 164.773438 61.5 159.148438 61.5 159.148438 "/></clipPath><clipPath id="f404f994f3"><path d="M 29.824219 13 L 103.558594 13 L 103.558594 88.300781 L 29.824219 88.300781 Z M 29.824219 13 "/></clipPath><clipPath id="33392f8715"><path d="M 103.273438 39.523438 C 103.273438 63.148438 100.574219 69.300781 96.976562 73.875 C 93.375 78.375 88.125 82.5 82.800781 84.898438 C 77.550781 87.300781 70.949219 88.5 65.175781 88.125 C 59.398438 87.824219 53.023438 85.800781 48.074219 82.800781 C 43.050781 79.800781 38.324219 75.074219 35.324219 70.125 C 32.324219 65.101562 30.375 58.800781 30 52.949219 C 29.625 47.175781 30.898438 40.574219 33.226562 35.324219 C 35.625 30 39.75 24.75 44.324219 21.148438 C 48.898438 17.625 54.976562 14.851562 60.675781 13.800781 C 66.375 12.75 73.050781 13.199219 78.601562 14.925781 C 84.148438 16.648438 93.976562 24.226562 93.976562 24.226562 "/></clipPath><clipPath id="4cc7a05437"><path d="M 54.574219 72 L 128.308594 72 L 128.308594 147.175781 L 54.574219 147.175781 Z M 54.574219 72 "/></clipPath><clipPath id="6211bf3727"><path d="M 128.023438 98.398438 C 128.023438 122.023438 125.324219 128.101562 121.726562 132.675781 C 118.125 137.25 112.875 141.375 107.550781 143.699219 C 102.300781 146.101562 95.699219 147.300781 89.925781 147 C 84.148438 146.625 77.773438 144.601562 72.824219 141.601562 C 67.800781 138.601562 63.074219 133.875 60.074219 128.925781 C 57.074219 123.976562 55.125 117.601562 54.75 111.824219 C 54.375 105.976562 55.574219 99.449219 57.976562 94.125 C 60.375 88.875 64.5 83.625 69.074219 80.023438 C 73.648438 76.425781 79.726562 73.726562 85.425781 72.675781 C 91.125 71.625 97.800781 72 103.351562 73.726562 C 108.898438 75.449219 118.726562 83.023438 118.726562 83.023438 "/></clipPath><clipPath id="dd8172d103"><path d="M 64.324219 103.519531 L 137.746094 103.519531 L 137.746094 178.824219 L 64.324219 178.824219 Z M 64.324219 103.519531 "/></clipPath><clipPath id="f1bc3426ec"><path d="M 137.699219 130.050781 C 137.773438 153.675781 135 159.75 131.476562 164.324219 C 127.875 168.898438 122.625 173.023438 117.300781 175.351562 C 112.050781 177.75 105.449219 178.949219 99.675781 178.574219 C 93.824219 178.273438 87.523438 176.25 82.5 173.25 C 77.550781 170.25 72.824219 165.523438 69.824219 160.574219 C 66.824219 155.625 64.875 149.25 64.5 143.398438 C 64.125 137.625 65.324219 131.101562 67.726562 125.773438 C 70.125 120.449219 74.25 115.199219 78.824219 111.675781 C 83.398438 108.074219 89.476562 105.300781 95.175781 104.324219 C 100.875 103.273438 107.550781 103.648438 113.101562 105.375 C 118.648438 107.101562 128.476562 114.675781 128.476562 114.675781 "/></clipPath><clipPath id="451341bbb5"><path d="M 100.847656 151.371094 L 174.269531 151.371094 L 174.269531 226.675781 L 100.847656 226.675781 Z M 100.847656 151.371094 "/></clipPath><clipPath id="3ff0efd8fe"><path d="M 174.226562 177.898438 C 174.300781 201.523438 171.523438 207.601562 167.925781 212.175781 C 164.398438 216.75 159.148438 220.875 153.824219 223.273438 C 148.5 225.601562 141.976562 226.800781 136.199219 226.5 C 130.351562 226.125 123.976562 224.175781 119.023438 221.101562 C 114.074219 218.101562 109.351562 213.449219 106.351562 208.425781 C 103.351562 203.476562 101.324219 197.101562 101.023438 191.324219 C 100.648438 185.476562 101.851562 178.949219 104.25 173.625 C 106.648438 168.375 110.773438 163.125 115.351562 159.523438 C 119.925781 155.925781 126 153.226562 131.699219 152.175781 C 137.398438 151.125 144.074219 151.5 149.625 153.226562 C 155.175781 154.949219 164.925781 162.523438 164.925781 162.523438 "/></clipPath><clipPath id="1684a41e5b"><path d="M 156.425781 96.621094 L 229.847656 96.621094 L 229.847656 171.925781 L 156.425781 171.925781 Z M 156.425781 96.621094 "/></clipPath><clipPath id="0556a26832"><path d="M 229.800781 123.148438 C 229.875 146.773438 227.101562 152.851562 223.5 157.425781 C 219.976562 162 214.726562 166.125 209.398438 168.449219 C 204.074219 170.851562 197.550781 172.050781 191.773438 171.675781 C 185.925781 171.375 179.550781 169.351562 174.601562 166.351562 C 169.648438 163.351562 164.925781 158.625 161.925781 153.675781 C 158.925781 148.726562 156.898438 142.351562 156.601562 136.574219 C 156.226562 130.726562 157.425781 124.199219 159.824219 118.875 C 162.226562 113.625 166.351562 108.375 170.925781 104.773438 C 175.5 101.175781 181.574219 98.476562 187.273438 97.425781 C 192.976562 96.375 199.648438 96.75 205.199219 98.476562 C 210.75 100.199219 220.574219 107.773438 220.574219 107.773438 "/></clipPath><clipPath id="f74357da28"><path d="M 167.75 53.570312 L 241.484375 53.570312 L 241.484375 128.875 L 167.75 128.875 Z M 167.75 53.570312 "/></clipPath><clipPath id="7b24599654"><path d="M 241.199219 80.101562 C 241.199219 103.726562 238.5 109.800781 234.898438 114.375 C 231.300781 118.949219 226.050781 123.074219 220.800781 125.476562 C 215.476562 127.875 208.875 129.074219 203.101562 128.699219 C 197.324219 128.324219 190.949219 126.375 186 123.375 C 180.976562 120.375 176.25 115.648438 173.25 110.699219 C 170.25 105.675781 168.300781 99.300781 167.925781 93.523438 C 167.625 87.75 168.824219 81.148438 171.148438 75.898438 C 173.550781 70.574219 177.675781 65.324219 182.25 61.726562 C 186.824219 58.199219 192.898438 55.425781 198.601562 54.375 C 204.300781 53.324219 210.976562 53.773438 216.523438 55.5 C 222.074219 57.226562 231.898438 64.800781 231.898438 64.800781 "/></clipPath><clipPath id="29eb885ca1"><path d="M 147.050781 103.519531 L 220.785156 103.519531 L 220.785156 178.824219 L 147.050781 178.824219 Z M 147.050781 103.519531 "/></clipPath><clipPath id="df6ea981cb"><path d="M 220.5 130.050781 C 220.5 153.675781 217.800781 159.75 214.199219 164.324219 C 210.601562 168.898438 205.351562 173.023438 200.101562 175.351562 C 194.773438 177.75 188.25 178.949219 182.398438 178.574219 C 176.625 178.273438 170.25 176.25 165.300781 173.25 C 160.273438 170.25 155.625 165.523438 152.625 160.574219 C 149.550781 155.625 147.601562 149.25 147.226562 143.398438 C 146.925781 137.625 148.125 131.101562 150.523438 125.773438 C 152.851562 120.449219 156.976562 115.199219 161.550781 111.675781 C 166.125 108.074219 172.199219 105.300781 177.898438 104.324219 C 183.675781 103.273438 190.273438 103.648438 195.824219 105.375 C 201.375 107.101562 211.199219 114.675781 211.199219 114.675781 "/></clipPath><clipPath id="1a273333b2"><path d="M 162.125 111.621094 L 235.546875 111.621094 L 235.546875 186.925781 L 162.125 186.925781 Z M 162.125 111.621094 "/></clipPath><clipPath id="4625a7056b"><path d="M 235.5 138.148438 C 235.5 161.773438 232.800781 167.851562 229.199219 172.425781 C 225.601562 177 220.351562 181.125 215.101562 183.449219 C 209.773438 185.851562 203.25 187.050781 197.398438 186.75 C 191.625 186.375 185.25 184.351562 180.300781 181.351562 C 175.351562 178.351562 170.625 173.625 167.625 168.675781 C 164.625 163.726562 162.601562 157.351562 162.300781 151.574219 C 161.925781 145.726562 163.125 139.199219 165.523438 133.875 C 167.851562 128.625 171.976562 123.375 176.550781 119.773438 C 181.125 116.175781 187.199219 113.476562 192.976562 112.425781 C 198.675781 111.375 205.351562 111.75 210.824219 113.476562 C 216.375 115.199219 226.199219 122.773438 226.199219 122.773438 "/></clipPath><clipPath id="10d04f731f"><path d="M 201.875 33 L 275.296875 33 L 275.296875 108.175781 L 201.875 108.175781 Z M 201.875 33 "/></clipPath><clipPath id="ec6d422667"><path d="M 275.25 59.398438 C 275.324219 83.101562 272.550781 89.175781 268.949219 93.75 C 265.425781 98.324219 260.175781 102.375 254.851562 104.773438 C 249.523438 107.175781 243 108.375 237.148438 108 C 231.375 107.699219 225 105.675781 220.050781 102.675781 C 215.101562 99.675781 210.375 94.949219 207.375 90 C 204.375 85.050781 202.351562 78.675781 202.050781 72.824219 C 201.675781 67.050781 202.875 60.523438 205.273438 55.199219 C 207.675781 49.875 211.726562 44.625 216.300781 41.101562 C 220.875 37.5 226.949219 34.726562 232.726562 33.675781 C 238.425781 32.625 245.101562 33.074219 250.648438 34.800781 C 256.125 36.523438 265.949219 44.101562 265.949219 44.101562 "/></clipPath><clipPath id="06b2863ee0"><path d="M 64.324219 147.695312 L 137.746094 147.695312 L 137.746094 223 L 64.324219 223 Z M 64.324219 147.695312 "/></clipPath><clipPath id="855e01ed27"><path d="M 137.699219 174.226562 C 137.773438 197.851562 135 203.925781 131.476562 208.5 C 127.875 213.074219 122.625 217.199219 117.300781 219.601562 C 112.050781 222 105.449219 223.199219 99.675781 222.824219 C 93.824219 222.449219 87.523438 220.5 82.5 217.5 C 77.550781 214.5 72.824219 209.773438 69.824219 204.824219 C 66.824219 199.800781 64.875 193.425781 64.5 187.648438 C 64.125 181.875 65.324219 175.273438 67.726562 170.023438 C 70.125 164.699219 74.25 159.449219 78.824219 155.851562 C 83.398438 152.324219 89.476562 149.550781 95.175781 148.5 C 100.875 147.449219 107.550781 147.898438 113.101562 149.625 C 118.648438 151.351562 128.476562 158.851562 128.476562 158.851562 "/></clipPath><clipPath id="1757e98e09"><path d="M 58.625 135.097656 L 132.359375 135.097656 L 132.359375 210.402344 L 58.625 210.402344 Z M 58.625 135.097656 "/></clipPath><clipPath id="ba35f0ac53"><path d="M 132.074219 161.699219 C 132.074219 185.324219 129.375 191.398438 125.773438 195.976562 C 122.175781 200.550781 116.925781 204.601562 111.601562 207 C 106.351562 209.398438 99.75 210.601562 93.976562 210.226562 C 88.199219 209.925781 81.824219 207.898438 76.875 204.898438 C 71.851562 201.898438 67.125 197.175781 64.125 192.226562 C 61.125 187.273438 59.175781 180.898438 58.800781 175.050781 C 58.5 169.273438 59.699219 162.75 62.023438 157.425781 C 64.425781 152.101562 68.550781 146.851562 73.125 143.324219 C 77.699219 139.726562 83.773438 136.949219 89.476562 135.898438 C 95.175781 134.851562 101.851562 135.300781 107.398438 137.023438 C 112.949219 138.75 122.773438 146.324219 122.773438 146.324219 "/></clipPath><clipPath id="6ce2e858ee"><path d="M 93.5 166.746094 L 167 166.746094 L 167 242 L 93.5 242 Z M 93.5 166.746094 "/></clipPath><clipPath id="8d2ee32669"><path d="M 166.949219 193.273438 C 166.949219 216.898438 164.25 223.050781 160.648438 227.625 C 157.050781 232.199219 151.800781 236.25 146.550781 238.648438 C 141.226562 241.050781 134.699219 242.25 128.851562 241.875 C 123.074219 241.574219 116.699219 239.550781 111.75 236.550781 C 106.726562 233.550781 102.074219 228.824219 99.074219 223.875 C 96 218.851562 94.050781 212.550781 93.675781 206.699219 C 93.375 200.925781 94.574219 194.398438 96.976562 189.074219 C 99.300781 183.75 103.425781 178.5 108 174.976562 C 112.574219 171.375 118.648438 168.601562 124.351562 167.550781 C 130.125 166.5 136.726562 166.949219 142.273438 168.675781 C 147.824219 170.398438 157.648438 177.976562 157.648438 177.976562 "/></clipPath><clipPath id="240f8f357a"><path d="M 81 156.621094 L 154.394531 156.621094 L 154.394531 231.925781 L 81 231.925781 Z M 81 156.621094 "/></clipPath><clipPath id="6dc8fac177"><path d="M 154.351562 183.148438 C 154.425781 206.773438 151.648438 212.851562 148.050781 217.425781 C 144.523438 222 139.273438 226.125 133.949219 228.523438 C 128.625 230.925781 122.101562 232.125 116.324219 231.75 C 110.476562 231.375 104.101562 229.425781 99.148438 226.425781 C 94.199219 223.425781 89.476562 218.699219 86.476562 213.75 C 83.476562 208.726562 81.449219 202.351562 81.148438 196.574219 C 80.773438 190.800781 81.976562 184.199219 84.375 178.949219 C 86.773438 173.625 90.898438 168.375 95.398438 164.773438 C 99.976562 161.25 106.125 158.476562 111.824219 157.425781 C 117.523438 156.375 124.199219 156.824219 129.75 158.550781 C 135.300781 160.273438 145.050781 167.773438 145.050781 167.773438 "/></clipPath><clipPath id="754a425a90"><path d="M 90 185.046875 L 163.320312 185.046875 L 163.320312 260.351562 L 90 260.351562 Z M 90 185.046875 "/></clipPath><clipPath id="93619e61bd"><path d="M 163.273438 211.574219 C 163.351562 235.199219 160.574219 241.273438 156.976562 245.851562 C 153.449219 250.425781 148.199219 254.550781 142.875 256.949219 C 137.550781 259.273438 131.023438 260.476562 125.25 260.175781 C 119.398438 259.800781 113.023438 257.851562 108.074219 254.773438 C 103.125 251.773438 98.398438 247.050781 95.398438 242.101562 C 92.398438 237.148438 90.375 230.773438 90.074219 225 C 89.699219 219.148438 90.898438 212.625 93.300781 207.300781 C 95.699219 202.050781 99.824219 196.800781 104.324219 193.199219 C 108.898438 189.601562 115.050781 186.898438 120.75 185.851562 C 126.449219 184.800781 133.125 185.175781 138.675781 186.898438 C 144.226562 188.625 153.976562 196.199219 153.976562 196.199219 "/></clipPath><clipPath id="b39b0fe679"><path d="M 112.175781 158.644531 L 185.910156 158.644531 L 185.910156 233.949219 L 112.175781 233.949219 Z M 112.175781 158.644531 "/></clipPath><clipPath id="28b8207d2b"><path d="M 185.625 185.175781 C 185.625 208.800781 182.925781 214.875 179.324219 219.449219 C 175.726562 224.023438 170.476562 228.148438 165.148438 230.550781 C 159.898438 232.949219 153.300781 234.148438 147.523438 233.773438 C 141.75 233.398438 135.375 231.449219 130.425781 228.449219 C 125.398438 225.449219 120.675781 220.726562 117.675781 215.773438 C 114.675781 210.75 112.726562 204.375 112.351562 198.601562 C 112.050781 192.824219 113.25 186.226562 115.574219 180.976562 C 117.976562 175.648438 122.101562 170.398438 126.675781 166.800781 C 131.25 163.273438 137.324219 160.5 143.023438 159.449219 C 148.726562 158.398438 155.398438 158.851562 160.949219 160.574219 C 166.5 162.300781 176.324219 169.875 176.324219 169.875 "/></clipPath><clipPath id="c54cead819"><path d="M 100.847656 173 L 174.269531 173 L 174.269531 248.125 L 100.847656 248.125 Z M 100.847656 173 "/></clipPath><clipPath id="4a8c1ab08c"><path d="M 174.226562 199.425781 C 174.300781 223.050781 171.523438 229.125 167.925781 233.699219 C 164.398438 238.273438 159.148438 242.324219 153.824219 244.726562 C 148.5 247.125 141.976562 248.324219 136.199219 247.949219 C 130.351562 247.648438 123.976562 245.625 119.023438 242.625 C 114.074219 239.625 109.351562 234.898438 106.351562 229.949219 C 103.351562 225 101.324219 218.625 101.023438 212.773438 C 100.648438 207 101.851562 200.476562 104.25 195.148438 C 106.648438 189.824219 110.773438 184.574219 115.351562 181.050781 C 119.925781 177.449219 126 174.675781 131.699219 173.625 C 137.398438 172.648438 144.074219 173.023438 149.625 174.75 C 155.175781 176.476562 164.925781 184.050781 164.925781 184.050781 "/></clipPath><clipPath id="b85269af0d"><path d="M 90.722656 184.222656 L 164.144531 184.222656 L 164.144531 259.527344 L 90.722656 259.527344 Z M 90.722656 184.222656 "/></clipPath><clipPath id="8570dc34d1"><path d="M 164.101562 210.75 C 164.101562 234.375 161.398438 240.449219 157.800781 245.023438 C 154.199219 249.601562 148.949219 253.726562 143.699219 256.125 C 138.375 258.523438 131.851562 259.726562 126 259.351562 C 120.226562 258.976562 113.851562 257.023438 108.898438 254.023438 C 103.949219 251.023438 99.226562 246.300781 96.226562 241.273438 C 93.226562 236.324219 91.199219 229.949219 90.898438 224.175781 C 90.523438 218.398438 91.726562 211.800781 94.125 206.476562 C 96.449219 201.226562 100.574219 195.976562 105.148438 192.375 C 109.726562 188.773438 115.800781 186.074219 121.574219 185.023438 C 127.273438 183.976562 133.949219 184.351562 139.425781 186.074219 C 144.976562 187.800781 154.800781 195.375 154.800781 195.375 "/></clipPath></defs><g id="0fbfdf39da"><path style=" stroke:none;fill-rule:nonzero;fill:#e4572e;fill-opacity:1;" d="M 145.363281 132.878906 C 146.75 126.535156 148.078125 120.179688 149.535156 113.851562 C 152.878906 99.34375 157.148438 85.121094 164.453125 72.054688 C 178.214844 47.445312 198.851562 32.121094 226.699219 26.894531 C 234.53125 25.421875 242.390625 25.773438 250.136719 27.667969 C 266.554688 31.6875 277.867188 44.121094 280.617188 60.910156 C 282.5625 72.773438 280.558594 84.210938 277.089844 95.492188 C 272.699219 109.78125 265.925781 122.96875 258.210938 135.699219 C 246.40625 155.175781 232.835938 173.378906 218.164062 190.777344 C 190.824219 223.1875 161.042969 253.167969 128.390625 280.230469 C 121.316406 286.09375 113.546875 291.152344 105.890625 296.261719 C 103.339844 297.964844 100.210938 299.117188 97.191406 299.664062 C 95.636719 299.945312 93.109375 298.808594 92.152344 297.492188 C 90.671875 295.453125 92.574219 293.824219 94.308594 292.601562 C 113.507812 279.089844 130.6875 263.207031 147.660156 247.089844 C 173.800781 222.269531 198.484375 196.089844 220.671875 167.636719 C 233.140625 151.652344 244.691406 135.03125 254.203125 117.082031 C 260.226562 105.714844 265.449219 93.980469 267.503906 81.183594 C 268.351562 75.902344 268.675781 70.40625 268.277344 65.082031 C 267.261719 51.308594 258.210938 41.886719 244.601562 39.5 C 235.960938 37.980469 227.527344 38.917969 219.3125 41.664062 C 198.636719 48.574219 183.550781 61.957031 173.902344 81.476562 C 167.273438 94.890625 163.289062 109.191406 160.484375 123.796875 C 157.476562 139.472656 155.003906 155.25 152.246094 170.972656 C 151.820312 173.398438 151.363281 175.863281 150.492188 178.144531 C 149.527344 180.664062 147.359375 181.953125 144.628906 181.898438 C 141.910156 181.84375 139.777344 180.527344 138.867188 177.96875 C 138.125 175.878906 137.722656 173.625 137.484375 171.40625 C 133.480469 133.800781 124.128906 97.511719 109.691406 62.628906 C 105.597656 52.746094 99.929688 43.378906 93.984375 34.445312 C 90.457031 29.144531 85.449219 24.503906 80.273438 20.695312 C 69.957031 13.101562 58.195312 14.300781 48.953125 23.183594 C 38.742188 33 34.378906 45.648438 32.09375 59.203125 C 28.136719 82.695312 32.132812 105.375 39.585938 127.585938 C 47.9375 152.464844 59.496094 175.808594 74.765625 197.191406 C 83.261719 209.085938 92.261719 220.621094 101.035156 232.316406 C 103.734375 235.917969 106.640625 239.382812 109.066406 243.152344 C 110.488281 245.359375 111.628906 247.972656 112.050781 250.542969 C 112.746094 254.789062 110.332031 256.457031 106.4375 254.773438 C 105.210938 254.242188 104.027344 253.523438 102.976562 252.695312 C 101.390625 251.445312 99.761719 250.175781 98.457031 248.652344 C 66.9375 211.78125 39.8125 172.292969 25.800781 125.128906 C 20.515625 107.335938 17.4375 89.210938 18.5625 70.554688 C 19.3125 58.117188 21.59375 46.011719 26.660156 34.546875 C 30.0625 26.851562 34.613281 19.929688 40.765625 14.140625 C 54.167969 1.527344 71.878906 0.0703125 87.179688 10.347656 C 94.757812 15.4375 100.699219 22.171875 105.9375 29.5625 C 113.535156 40.277344 119.152344 52.035156 123.832031 64.25 C 131.726562 84.855469 138.21875 105.894531 142.972656 127.457031 C 143.355469 129.203125 143.871094 130.914062 144.328125 132.644531 C 144.675781 132.722656 145.019531 132.796875 145.367188 132.875 Z M 145.363281 132.878906 "/><g clip-rule="nonzero" clip-path="url(#d69c55231a)"><g clip-rule="nonzero" clip-path="url(#937c9a2117)"><path style=" stroke:none;fill-rule:nonzero;fill:#e4572e;fill-opacity:1;" d="M 21.300781 24.976562 L 245.101562 24.976562 L 245.101562 224.074219 L 21.300781 224.074219 Z M 21.300781 24.976562 "/></g></g><g clip-rule="nonzero" clip-path="url(#ebd162a7e3)"><g clip-rule="nonzero" clip-path="url(#4071d7fc9b)"><path style=" stroke:none;fill-rule:nonzero;fill:#e4572e;fill-opacity:1;" d="M 151.875 33.300781 L 264.074219 33.300781 L 264.074219 164.347656 L 151.875 164.347656 Z M 151.875 33.300781 "/></g></g><g clip-rule="nonzero" clip-path="url(#bf947afd77)"><g clip-rule="nonzero" clip-path="url(#3ff5eefca2)"><path style=" stroke:none;fill-rule:nonzero;fill:#e4572e;fill-opacity:1;" d="M 183.375 33.300781 L 268.800781 33.300781 L 268.800781 155.765625 L 183.375 155.765625 Z M 183.375 33.300781 "/></g></g><g clip-rule="nonzero" clip-path="url(#4fd9d68f26)"><g clip-rule="nonzero" clip-path="url(#86e9f326b7)"><path style=" stroke:none;fill-rule:nonzero;fill:#e4572e;fill-opacity:1;" d="M 30.898438 25.425781 L 137.476562 25.425781 L 137.476562 187.785156 L 30.898438 187.785156 Z M 30.898438 25.425781 "/></g></g><g clip-rule="nonzero" clip-path="url(#f404f994f3)"><g clip-rule="nonzero" clip-path="url(#33392f8715)"><path style=" stroke:none;fill-rule:nonzero;fill:#e4572e;fill-opacity:1;" d="M 27 10.800781 L 107.324219 10.800781 L 107.324219 91.125 L 27 91.125 Z M 27 10.800781 "/></g></g><g clip-rule="nonzero" clip-path="url(#4cc7a05437)"><g clip-rule="nonzero" clip-path="url(#6211bf3727)"><path style=" stroke:none;fill-rule:nonzero;fill:#e4572e;fill-opacity:1;" d="M 51.75 69.675781 L 132.074219 69.675781 L 132.074219 150 L 51.75 150 Z M 51.75 69.675781 "/></g></g><g clip-rule="nonzero" clip-path="url(#dd8172d103)"><g clip-rule="nonzero" clip-path="url(#f1bc3426ec)"><path style=" stroke:none;fill-rule:nonzero;fill:#e4572e;fill-opacity:1;" d="M 61.5 101.324219 L 141.824219 101.324219 L 141.824219 181.648438 L 61.5 181.648438 Z M 61.5 101.324219 "/></g></g><g clip-rule="nonzero" clip-path="url(#451341bbb5)"><g clip-rule="nonzero" clip-path="url(#3ff0efd8fe)"><path style=" stroke:none;fill-rule:nonzero;fill:#e4572e;fill-opacity:1;" d="M 98.023438 149.175781 L 178.351562 149.175781 L 178.351562 229.5 L 98.023438 229.5 Z M 98.023438 149.175781 "/></g></g><g clip-rule="nonzero" clip-path="url(#1684a41e5b)"><g clip-rule="nonzero" clip-path="url(#0556a26832)"><path style=" stroke:none;fill-rule:nonzero;fill:#e4572e;fill-opacity:1;" d="M 153.601562 94.425781 L 233.925781 94.425781 L 233.925781 174.75 L 153.601562 174.75 Z M 153.601562 94.425781 "/></g></g><g clip-rule="nonzero" clip-path="url(#f74357da28)"><g clip-rule="nonzero" clip-path="url(#7b24599654)"><path style=" stroke:none;fill-rule:nonzero;fill:#e4572e;fill-opacity:1;" d="M 164.925781 51.375 L 245.25 51.375 L 245.25 131.699219 L 164.925781 131.699219 Z M 164.925781 51.375 "/></g></g><g clip-rule="nonzero" clip-path="url(#29eb885ca1)"><g clip-rule="nonzero" clip-path="url(#df6ea981cb)"><path style=" stroke:none;fill-rule:nonzero;fill:#e4572e;fill-opacity:1;" d="M 144.226562 101.324219 L 224.550781 101.324219 L 224.550781 181.648438 L 144.226562 181.648438 Z M 144.226562 101.324219 "/></g></g><g clip-rule="nonzero" clip-path="url(#1a273333b2)"><g clip-rule="nonzero" clip-path="url(#4625a7056b)"><path style=" stroke:none;fill-rule:nonzero;fill:#e4572e;fill-opacity:1;" d="M 159.300781 109.425781 L 239.625 109.425781 L 239.625 189.75 L 159.300781 189.75 Z M 159.300781 109.425781 "/></g></g><g clip-rule="nonzero" clip-path="url(#10d04f731f)"><g clip-rule="nonzero" clip-path="url(#ec6d422667)"><path style=" stroke:none;fill-rule:nonzero;fill:#e4572e;fill-opacity:1;" d="M 199.050781 30.675781 L 279.375 30.675781 L 279.375 111 L 199.050781 111 Z M 199.050781 30.675781 "/></g></g><g clip-rule="nonzero" clip-path="url(#06b2863ee0)"><g clip-rule="nonzero" clip-path="url(#855e01ed27)"><path style=" stroke:none;fill-rule:nonzero;fill:#e4572e;fill-opacity:1;" d="M 61.5 145.5 L 141.824219 145.5 L 141.824219 225.824219 L 61.5 225.824219 Z M 61.5 145.5 "/></g></g><g clip-rule="nonzero" clip-path="url(#1757e98e09)"><g clip-rule="nonzero" clip-path="url(#ba35f0ac53)"><path style=" stroke:none;fill-rule:nonzero;fill:#e4572e;fill-opacity:1;" d="M 55.800781 132.898438 L 136.125 132.898438 L 136.125 213.226562 L 55.800781 213.226562 Z M 55.800781 132.898438 "/></g></g><g clip-rule="nonzero" clip-path="url(#6ce2e858ee)"><g clip-rule="nonzero" clip-path="url(#8d2ee32669)"><path style=" stroke:none;fill-rule:nonzero;fill:#e4572e;fill-opacity:1;" d="M 90.675781 164.550781 L 171 164.550781 L 171 244.875 L 90.675781 244.875 Z M 90.675781 164.550781 "/></g></g><g clip-rule="nonzero" clip-path="url(#240f8f357a)"><g clip-rule="nonzero" clip-path="url(#6dc8fac177)"><path style=" stroke:none;fill-rule:nonzero;fill:#e4572e;fill-opacity:1;" d="M 78.148438 154.425781 L 158.476562 154.425781 L 158.476562 234.75 L 78.148438 234.75 Z M 78.148438 154.425781 "/></g></g><g clip-rule="nonzero" clip-path="url(#754a425a90)"><g clip-rule="nonzero" clip-path="url(#93619e61bd)"><path style=" stroke:none;fill-rule:nonzero;fill:#e4572e;fill-opacity:1;" d="M 87.074219 182.851562 L 167.398438 182.851562 L 167.398438 263.175781 L 87.074219 263.175781 Z M 87.074219 182.851562 "/></g></g><g clip-rule="nonzero" clip-path="url(#b39b0fe679)"><g clip-rule="nonzero" clip-path="url(#28b8207d2b)"><path style=" stroke:none;fill-rule:nonzero;fill:#e4572e;fill-opacity:1;" d="M 109.351562 156.449219 L 189.675781 156.449219 L 189.675781 236.773438 L 109.351562 236.773438 Z M 109.351562 156.449219 "/></g></g><g clip-rule="nonzero" clip-path="url(#c54cead819)"><g clip-rule="nonzero" clip-path="url(#4a8c1ab08c)"><path style=" stroke:none;fill-rule:nonzero;fill:#e4572e;fill-opacity:1;" d="M 98.023438 170.625 L 178.351562 170.625 L 178.351562 250.949219 L 98.023438 250.949219 Z M 98.023438 170.625 "/></g></g><g clip-rule="nonzero" clip-path="url(#b85269af0d)"><g clip-rule="nonzero" clip-path="url(#8570dc34d1)"><path style=" stroke:none;fill-rule:nonzero;fill:#e4572e;fill-opacity:1;" d="M 87.898438 182.023438 L 168.226562 182.023438 L 168.226562 262.351562 L 87.898438 262.351562 Z M 87.898438 182.023438 "/><path style=" stroke:none;fill-rule:nonzero;fill:#e4572e;fill-opacity:1;" d="M 87.898438 182.023438 L 168.226562 182.023438 L 168.226562 262.351562 L 87.898438 262.351562 Z M 87.898438 182.023438 "/><path style=" stroke:none;fill-rule:nonzero;fill:#e4572e;fill-opacity:1;" d="M 87.898438 182.023438 L 168.226562 182.023438 L 168.226562 262.351562 L 87.898438 262.351562 Z M 87.898438 182.023438 "/><path style=" stroke:none;fill-rule:nonzero;fill:#e4572e;fill-opacity:1;" d="M 87.898438 182.023438 L 168.226562 182.023438 L 168.226562 262.351562 L 87.898438 262.351562 Z M 87.898438 182.023438 "/><path style=" stroke:none;fill-rule:nonzero;fill:#e4572e;fill-opacity:1;" d="M 87.898438 182.023438 L 168.226562 182.023438 L 168.226562 262.351562 L 87.898438 262.351562 Z M 87.898438 182.023438 "/></g></g></g></svg>